<svg width="21" height="23" viewBox="0 0 21 23" fill="none" xmlns="http://www.w3.org/2000/svg">
<g id="Add to favourites">
<path id="Rectangle 19" d="M0.519531 10.4199C0.519531 4.89707 4.99668 0.419922 10.5195 0.419922C16.0424 0.419922 20.5195 4.89707 20.5195 10.4199V12.0614C20.5195 17.5842 16.0424 22.0614 10.5195 22.0614C4.99668 22.0614 0.519531 17.5842 0.519531 12.0614V10.4199Z" fill="#F2F2F2"/>
<path id="Vector" d="M6.35961 11.962L10.5196 16.2903L14.6796 11.962C15.4263 11.3849 15.8529 10.4616 15.8529 9.42277C15.8529 7.63374 14.5196 6.19098 12.8663 6.19098C11.9063 6.19098 11.0529 6.71037 10.5196 7.46061C9.98628 6.65266 9.13295 6.19098 8.17295 6.19098C6.51961 6.19098 5.18628 7.63374 5.18628 9.42277C5.18628 10.4616 5.66628 11.3849 6.35961 11.962ZM8.17295 7.34519C8.75961 7.34519 9.34628 7.63374 9.66628 8.15314L10.5196 9.42277L11.3729 8.21085C11.7463 7.69145 12.2796 7.4029 12.8663 7.4029C13.9329 7.4029 14.7863 8.32627 14.7863 9.48048C14.7863 10.1153 14.5196 10.7501 14.0396 11.0964H13.9863L13.9329 11.1541L10.5196 14.6744L7.10628 11.0964H7.05295L6.99961 11.0387C6.51961 10.6347 6.25295 10.0576 6.25295 9.42277C6.25295 8.26856 7.10628 7.34519 8.17295 7.34519Z" fill="#1F1C20"/>
</g>
</svg>