<svg width="16" height="16" viewBox="0 0 16 16" fill="none" xmlns="http://www.w3.org/2000/svg">
<g id="Star rating_opinie_black">
<path id="Vector" d="M13.3334 6.66669C13.3334 6.53335 13.0667 6.40002 12.9334 6.40002H9.60008L8.40008 2.93335C8.26675 2.66669 8.13341 2.66669 7.86675 2.66669C7.73341 2.66669 7.60008 2.80002 7.60008 2.93335L6.40008 6.40002H3.06675C2.80008 6.40002 2.66675 6.53335 2.66675 6.80002C2.66675 6.93335 2.66675 7.06669 2.80008 7.06669L5.46675 9.20002L4.26675 12.8C4.13341 13.0667 4.26675 13.2 4.53341 13.3334C4.66675 13.3334 4.80008 13.3334 4.93341 13.3334L8.00008 11.0667L11.0667 13.3334C11.2001 13.3334 11.4667 13.3334 11.6001 13.2C11.7334 13.0667 11.7334 12.9334 11.6001 12.8L10.4001 9.20002L13.0667 7.06669C13.3334 7.06669 13.3334 6.80002 13.3334 6.66669Z" fill="black"/>
</g>
</svg>
